<svg width="43" height="20" viewBox="0 0 43 20" fill="none" xmlns="http://www.w3.org/2000/svg">
<rect width="43" height="20" rx="5" fill="#2B1948"/>
<g clip-path="url(#clip0_17_179)">
<path fill-rule="evenodd" clip-rule="evenodd" d="M15.25 10.75H4.75L4.78937 13.75H15.25V10.75Z" fill="white"/>
<path fill-rule="evenodd" clip-rule="evenodd" d="M15.25 6.24998H4.75L4.78937 9.24998H15.25V6.24998Z" fill="white"/>
</g>
<path d="M27.2305 6.92773L24.9102 14H23.041L26.2109 5.46875H27.4004L27.2305 6.92773ZM29.1582 14L26.832 6.92773L26.6445 5.46875H27.8457L31.0332 14H29.1582ZM29.0527 10.8242V12.2012H24.5469V10.8242H29.0527ZM33.5 5V14H31.8066V5H33.5ZM36.6758 5V14H34.9824V5H36.6758Z" fill="white"/>
<rect x="0.5" y="0.5" width="42" height="19" rx="4.5" stroke="white" stroke-opacity="0.1"/>
<defs>
<clipPath id="clip0_17_179">
<rect width="18" height="18" fill="white" transform="translate(1 1)"/>
</clipPath>
</defs>
</svg>
