<svg width="49" height="20" viewBox="0 0 49 20" fill="none" xmlns="http://www.w3.org/2000/svg">
<rect width="49" height="20" rx="5" fill="#2B1948"/>
<g clip-path="url(#clip0_17_193)">
<path fill-rule="evenodd" clip-rule="evenodd" d="M10.75 10.75H9.25V13.75H7V10.75H4.75L4.78937 13.75H15.25V10.75H13V13.75H10.75V10.75Z" fill="white"/>
<path fill-rule="evenodd" clip-rule="evenodd" d="M15.25 6.24998H4.75L4.78937 9.24998H15.25V6.24998Z" fill="white"/>
</g>
<path d="M27.2305 6.92773L24.9102 14H23.041L26.2109 5.46875H27.4004L27.2305 6.92773ZM29.1582 14L26.832 6.92773L26.6445 5.46875H27.8457L31.0332 14H29.1582ZM29.0527 10.8242V12.2012H24.5469V10.8242H29.0527ZM33.1836 9.01367V14H31.4961V7.66016H33.0781L33.1836 9.01367ZM32.9375 10.6074H32.4805C32.4805 10.1387 32.541 9.7168 32.6621 9.3418C32.7832 8.96289 32.9531 8.64062 33.1719 8.375C33.3906 8.10547 33.6504 7.90039 33.9512 7.75977C34.2559 7.61523 34.5957 7.54297 34.9707 7.54297C35.2676 7.54297 35.5391 7.58594 35.7852 7.67188C36.0312 7.75781 36.2422 7.89453 36.418 8.08203C36.5977 8.26953 36.7344 8.51758 36.8281 8.82617C36.9258 9.13477 36.9746 9.51172 36.9746 9.95703V14H35.2754V9.95117C35.2754 9.66992 35.2363 9.45117 35.1582 9.29492C35.0801 9.13867 34.9648 9.0293 34.8125 8.9668C34.6641 8.90039 34.4805 8.86719 34.2617 8.86719C34.0352 8.86719 33.8379 8.91211 33.6699 9.00195C33.5059 9.0918 33.3691 9.2168 33.2598 9.37695C33.1543 9.5332 33.0742 9.7168 33.0195 9.92773C32.9648 10.1387 32.9375 10.3652 32.9375 10.6074ZM40.1387 13.2852L41.8203 7.66016H43.6309L41.082 14.9551C41.0273 15.1152 40.9531 15.2871 40.8594 15.4707C40.7695 15.6543 40.6465 15.8281 40.4902 15.9922C40.3379 16.1602 40.1445 16.2969 39.9102 16.4023C39.6797 16.5078 39.3965 16.5605 39.0605 16.5605C38.9004 16.5605 38.7695 16.5508 38.668 16.5312C38.5664 16.5117 38.4453 16.4844 38.3047 16.4492V15.2129C38.3477 15.2129 38.3926 15.2129 38.4395 15.2129C38.4863 15.2168 38.5312 15.2188 38.5742 15.2188C38.7969 15.2188 38.9785 15.1934 39.1191 15.1426C39.2598 15.0918 39.373 15.0137 39.459 14.9082C39.5449 14.8066 39.6133 14.6738 39.6641 14.5098L40.1387 13.2852ZM39.4355 7.66016L40.8125 12.2539L41.0527 14.041L39.9043 14.1641L37.625 7.66016H39.4355Z" fill="white"/>
<rect x="0.5" y="0.5" width="48" height="19" rx="4.5" stroke="white" stroke-opacity="0.1"/>
<defs>
<clipPath id="clip0_17_193">
<rect width="18" height="18" fill="white" transform="translate(1 1)"/>
</clipPath>
</defs>
</svg>
