<svg width="52" height="20" viewBox="0 0 52 20" fill="none" xmlns="http://www.w3.org/2000/svg">
<rect width="52" height="20" rx="5" fill="#35132C"/>
<g clip-path="url(#clip0_17_264)">
<path fill-rule="evenodd" clip-rule="evenodd" d="M9.25 8.5H4.75L4.76687 16H9.25V8.5Z" fill="white"/>
<path fill-rule="evenodd" clip-rule="evenodd" d="M9.25 3.99998H4.75L4.76687 6.99999H9.25V3.99998Z" fill="white"/>
<path fill-rule="evenodd" clip-rule="evenodd" d="M15.25 6.25H11.5L11.5141 13.75H15.25V6.25Z" fill="white"/>
</g>
<path d="M24.5645 5.46875H26.0527L28.2441 11.7324L30.4355 5.46875H31.9238L28.8418 14H27.6465L24.5645 5.46875ZM23.7617 5.46875H25.2441L25.5137 11.5742V14H23.7617V5.46875ZM31.2441 5.46875H32.7324V14H30.9746V11.5742L31.2441 5.46875ZM37.5898 12.5703V9.74609C37.5898 9.54297 37.5566 9.36914 37.4902 9.22461C37.4238 9.07617 37.3203 8.96094 37.1797 8.87891C37.043 8.79688 36.8652 8.75586 36.6465 8.75586C36.459 8.75586 36.2969 8.78906 36.1602 8.85547C36.0234 8.91797 35.918 9.00977 35.8438 9.13086C35.7695 9.24805 35.7324 9.38672 35.7324 9.54688H34.0449C34.0449 9.27734 34.1074 9.02148 34.2324 8.7793C34.3574 8.53711 34.5391 8.32422 34.7773 8.14062C35.0156 7.95312 35.2988 7.80664 35.627 7.70117C35.959 7.5957 36.3301 7.54297 36.7402 7.54297C37.2324 7.54297 37.6699 7.625 38.0527 7.78906C38.4355 7.95312 38.7363 8.19922 38.9551 8.52734C39.1777 8.85547 39.2891 9.26562 39.2891 9.75781V12.4707C39.2891 12.8184 39.3105 13.1035 39.3535 13.3262C39.3965 13.5449 39.459 13.7363 39.541 13.9004V14H37.8359C37.7539 13.8281 37.6914 13.6133 37.6484 13.3555C37.6094 13.0938 37.5898 12.832 37.5898 12.5703ZM37.8125 10.1387L37.8242 11.0938H36.8809C36.6582 11.0938 36.4648 11.1191 36.3008 11.1699C36.1367 11.2207 36.002 11.293 35.8965 11.3867C35.791 11.4766 35.7129 11.582 35.6621 11.7031C35.6152 11.8242 35.5918 11.957 35.5918 12.1016C35.5918 12.2461 35.625 12.377 35.6914 12.4941C35.7578 12.6074 35.8535 12.6973 35.9785 12.7637C36.1035 12.8262 36.25 12.8574 36.418 12.8574C36.6719 12.8574 36.8926 12.8066 37.0801 12.7051C37.2676 12.6035 37.4121 12.4785 37.5137 12.3301C37.6191 12.1816 37.6738 12.041 37.6777 11.9082L38.123 12.623C38.0605 12.7832 37.9746 12.9492 37.8652 13.1211C37.7598 13.293 37.625 13.4551 37.4609 13.6074C37.2969 13.7559 37.0996 13.8789 36.8691 13.9766C36.6387 14.0703 36.3652 14.1172 36.0488 14.1172C35.6465 14.1172 35.2812 14.0371 34.9531 13.877C34.6289 13.7129 34.3711 13.4883 34.1797 13.2031C33.9922 12.9141 33.8984 12.5859 33.8984 12.2188C33.8984 11.8867 33.9609 11.5918 34.0859 11.334C34.2109 11.0762 34.3945 10.8594 34.6367 10.6836C34.8828 10.5039 35.1895 10.3691 35.5566 10.2793C35.9238 10.1855 36.3496 10.1387 36.834 10.1387H37.8125ZM41.9492 7.66016L42.998 9.58789L44.0762 7.66016H45.875L44.082 10.7598L45.957 14H44.1523L43.0098 11.9609L41.8672 14H40.0625L41.9375 10.7598L40.1445 7.66016H41.9492Z" fill="white"/>
<rect x="0.5" y="0.5" width="51" height="19" rx="4.5" stroke="white" stroke-opacity="0.1"/>
<defs>
<clipPath id="clip0_17_264">
<rect width="18" height="18" fill="white" transform="translate(1 1)"/>
</clipPath>
</defs>
</svg>
