<svg width="49" height="20" viewBox="0 0 49 20" fill="none" xmlns="http://www.w3.org/2000/svg">
<rect width="49" height="20" rx="5" fill="#35132C"/>
<g clip-path="url(#clip0_17_252)">
<path fill-rule="evenodd" clip-rule="evenodd" d="M9.25 8.5H4.75L4.76687 16H9.25V8.5Z" fill="white"/>
<path fill-rule="evenodd" clip-rule="evenodd" d="M9.25 3.99998H4.75L4.76687 6.99998H9.25V3.99998Z" fill="white"/>
<path fill-rule="evenodd" clip-rule="evenodd" d="M15.25 8.49998H11.5L11.5141 11.5H15.25V8.49998Z" fill="white"/>
</g>
<path d="M24.5645 5.46875H26.0527L28.2441 11.7324L30.4355 5.46875H31.9238L28.8418 14H27.6465L24.5645 5.46875ZM23.7617 5.46875H25.2441L25.5137 11.5742V14H23.7617V5.46875ZM31.2441 5.46875H32.7324V14H30.9746V11.5742L31.2441 5.46875ZM35.9492 7.66016V14H34.2559V7.66016H35.9492ZM34.1504 6.00781C34.1504 5.76172 34.2363 5.55859 34.4082 5.39844C34.5801 5.23828 34.8105 5.1582 35.0996 5.1582C35.3848 5.1582 35.6133 5.23828 35.7852 5.39844C35.9609 5.55859 36.0488 5.76172 36.0488 6.00781C36.0488 6.25391 35.9609 6.45703 35.7852 6.61719C35.6133 6.77734 35.3848 6.85742 35.0996 6.85742C34.8105 6.85742 34.5801 6.77734 34.4082 6.61719C34.2363 6.45703 34.1504 6.25391 34.1504 6.00781ZM38.9961 9.01367V14H37.3086V7.66016H38.8906L38.9961 9.01367ZM38.75 10.6074H38.293C38.293 10.1387 38.3535 9.7168 38.4746 9.3418C38.5957 8.96289 38.7656 8.64062 38.9844 8.375C39.2031 8.10547 39.4629 7.90039 39.7637 7.75977C40.0684 7.61523 40.4082 7.54297 40.7832 7.54297C41.0801 7.54297 41.3516 7.58594 41.5977 7.67188C41.8438 7.75781 42.0547 7.89453 42.2305 8.08203C42.4102 8.26953 42.5469 8.51758 42.6406 8.82617C42.7383 9.13477 42.7871 9.51172 42.7871 9.95703V14H41.0879V9.95117C41.0879 9.66992 41.0488 9.45117 40.9707 9.29492C40.8926 9.13867 40.7773 9.0293 40.625 8.9668C40.4766 8.90039 40.293 8.86719 40.0742 8.86719C39.8477 8.86719 39.6504 8.91211 39.4824 9.00195C39.3184 9.0918 39.1816 9.2168 39.0723 9.37695C38.9668 9.5332 38.8867 9.7168 38.832 9.92773C38.7773 10.1387 38.75 10.3652 38.75 10.6074Z" fill="white"/>
<rect x="0.5" y="0.5" width="48" height="19" rx="4.5" stroke="white" stroke-opacity="0.1"/>
<defs>
<clipPath id="clip0_17_252">
<rect width="18" height="18" fill="white" transform="translate(1 1)"/>
</clipPath>
</defs>
</svg>
