<svg width="53" height="20" viewBox="0 0 53 20" fill="none" xmlns="http://www.w3.org/2000/svg">
<rect width="53" height="20" rx="5" fill="#35132C"/>
<g clip-path="url(#clip0_17_239)">
<path fill-rule="evenodd" clip-rule="evenodd" d="M9.25 8.49998H4.75L4.76687 11.5H9.25V8.49998Z" fill="white"/>
<path fill-rule="evenodd" clip-rule="evenodd" d="M15.25 6.24995H11.5L11.5141 13.75H15.25V6.24995Z" fill="white"/>
</g>
<path d="M24.5645 5.46875H26.0527L28.2441 11.7324L30.4355 5.46875H31.9238L28.8418 14H27.6465L24.5645 5.46875ZM23.7617 5.46875H25.2441L25.5137 11.5742V14H23.7617V5.46875ZM31.2441 5.46875H32.7324V14H30.9746V11.5742L31.2441 5.46875ZM37.918 12.4824V7.66016H39.6055V14H38.0176L37.918 12.4824ZM38.1055 11.1816L38.6035 11.1699C38.6035 11.5918 38.5547 11.9844 38.457 12.3477C38.3594 12.707 38.2129 13.0195 38.0176 13.2852C37.8223 13.5469 37.5762 13.752 37.2793 13.9004C36.9824 14.0449 36.6328 14.1172 36.2305 14.1172C35.9219 14.1172 35.6367 14.0742 35.375 13.9883C35.1172 13.8984 34.8945 13.7598 34.707 13.5723C34.5234 13.3809 34.3789 13.1367 34.2734 12.8398C34.1719 12.5391 34.1211 12.1777 34.1211 11.7559V7.66016H35.8086V11.7676C35.8086 11.9551 35.8301 12.1133 35.873 12.2422C35.9199 12.3711 35.9844 12.4766 36.0664 12.5586C36.1484 12.6406 36.2441 12.6992 36.3535 12.7344C36.4668 12.7695 36.5918 12.7871 36.7285 12.7871C37.0762 12.7871 37.3496 12.7168 37.5488 12.5762C37.752 12.4355 37.8945 12.2441 37.9766 12.002C38.0625 11.7559 38.1055 11.4824 38.1055 11.1816ZM42.6758 5V14H40.9824V5H42.6758ZM47.1758 7.66016V8.85547H43.4844V7.66016H47.1758ZM44.3984 6.0957H46.0859V12.0898C46.0859 12.2734 46.1094 12.4141 46.1562 12.5117C46.207 12.6094 46.2812 12.6777 46.3789 12.7168C46.4766 12.752 46.5996 12.7695 46.748 12.7695C46.8535 12.7695 46.9473 12.7656 47.0293 12.7578C47.1152 12.7461 47.1875 12.7344 47.2461 12.7227L47.252 13.9648C47.1074 14.0117 46.9512 14.0488 46.7832 14.0762C46.6152 14.1035 46.4297 14.1172 46.2266 14.1172C45.8555 14.1172 45.5312 14.0566 45.2539 13.9355C44.9805 13.8105 44.7695 13.6113 44.6211 13.3379C44.4727 13.0645 44.3984 12.7051 44.3984 12.2598V6.0957Z" fill="white"/>
<rect x="0.5" y="0.5" width="52" height="19" rx="4.5" stroke="white" stroke-opacity="0.1"/>
<defs>
<clipPath id="clip0_17_239">
<rect width="18" height="18" fill="white" transform="translate(1 1)"/>
</clipPath>
</defs>
</svg>
