<svg width="69" height="20" viewBox="0 0 69 20" fill="none" xmlns="http://www.w3.org/2000/svg">
<rect width="69" height="20" rx="5" fill="#193948"/>
<g clip-path="url(#clip0_17_69)">
<path d="M11.4625 16V13H4.7725L4.75 11.4925H11.4625V8.5L15.2125 12.25L11.4625 16Z" fill="white"/>
<path d="M11.4625 11.5V8.5H4.7725L4.75 6.9925H11.4625V4L15.2125 7.75L11.4625 11.5Z" fill="white"/>
</g>
<path d="M27.084 10.959H24.9102V9.58789H27.084C27.4199 9.58789 27.6934 9.5332 27.9043 9.42383C28.1152 9.31055 28.2695 9.1543 28.3672 8.95508C28.4648 8.75586 28.5137 8.53125 28.5137 8.28125C28.5137 8.02734 28.4648 7.79102 28.3672 7.57227C28.2695 7.35352 28.1152 7.17773 27.9043 7.04492C27.6934 6.91211 27.4199 6.8457 27.084 6.8457H25.5195V14H23.7617V5.46875H27.084C27.752 5.46875 28.3242 5.58984 28.8008 5.83203C29.2812 6.07031 29.6484 6.40039 29.9023 6.82227C30.1562 7.24414 30.2832 7.72656 30.2832 8.26953C30.2832 8.82031 30.1562 9.29688 29.9023 9.69922C29.6484 10.1016 29.2812 10.4121 28.8008 10.6309C28.3242 10.8496 27.752 10.959 27.084 10.959ZM34.7422 12.5703V9.74609C34.7422 9.54297 34.709 9.36914 34.6426 9.22461C34.5762 9.07617 34.4727 8.96094 34.332 8.87891C34.1953 8.79688 34.0176 8.75586 33.7988 8.75586C33.6113 8.75586 33.4492 8.78906 33.3125 8.85547C33.1758 8.91797 33.0703 9.00977 32.9961 9.13086C32.9219 9.24805 32.8848 9.38672 32.8848 9.54688H31.1973C31.1973 9.27734 31.2598 9.02148 31.3848 8.7793C31.5098 8.53711 31.6914 8.32422 31.9297 8.14062C32.168 7.95312 32.4512 7.80664 32.7793 7.70117C33.1113 7.5957 33.4824 7.54297 33.8926 7.54297C34.3848 7.54297 34.8223 7.625 35.2051 7.78906C35.5879 7.95312 35.8887 8.19922 36.1074 8.52734C36.3301 8.85547 36.4414 9.26562 36.4414 9.75781V12.4707C36.4414 12.8184 36.4629 13.1035 36.5059 13.3262C36.5488 13.5449 36.6113 13.7363 36.6934 13.9004V14H34.9883C34.9062 13.8281 34.8438 13.6133 34.8008 13.3555C34.7617 13.0938 34.7422 12.832 34.7422 12.5703ZM34.9648 10.1387L34.9766 11.0938H34.0332C33.8105 11.0938 33.6172 11.1191 33.4531 11.1699C33.2891 11.2207 33.1543 11.293 33.0488 11.3867C32.9434 11.4766 32.8652 11.582 32.8145 11.7031C32.7676 11.8242 32.7441 11.957 32.7441 12.1016C32.7441 12.2461 32.7773 12.377 32.8438 12.4941C32.9102 12.6074 33.0059 12.6973 33.1309 12.7637C33.2559 12.8262 33.4023 12.8574 33.5703 12.8574C33.8242 12.8574 34.0449 12.8066 34.2324 12.7051C34.4199 12.6035 34.5645 12.4785 34.666 12.3301C34.7715 12.1816 34.8262 12.041 34.8301 11.9082L35.2754 12.623C35.2129 12.7832 35.127 12.9492 35.0176 13.1211C34.9121 13.293 34.7773 13.4551 34.6133 13.6074C34.4492 13.7559 34.252 13.8789 34.0215 13.9766C33.791 14.0703 33.5176 14.1172 33.2012 14.1172C32.7988 14.1172 32.4336 14.0371 32.1055 13.877C31.7812 13.7129 31.5234 13.4883 31.332 13.2031C31.1445 12.9141 31.0508 12.5859 31.0508 12.2188C31.0508 11.8867 31.1133 11.5918 31.2383 11.334C31.3633 11.0762 31.5469 10.8594 31.7891 10.6836C32.0352 10.5039 32.3418 10.3691 32.709 10.2793C33.0762 10.1855 33.502 10.1387 33.9863 10.1387H34.9648ZM39.4297 9.04297V14H37.7422V7.66016H39.3301L39.4297 9.04297ZM41.3398 7.61914L41.3105 9.18359C41.2285 9.17188 41.1289 9.16211 41.0117 9.1543C40.8984 9.14258 40.7949 9.13672 40.7012 9.13672C40.4629 9.13672 40.2559 9.16797 40.0801 9.23047C39.9082 9.28906 39.7637 9.37695 39.6465 9.49414C39.5332 9.61133 39.4473 9.75391 39.3887 9.92188C39.334 10.0898 39.3027 10.2812 39.2949 10.4961L38.9551 10.3906C38.9551 9.98047 38.9961 9.60352 39.0781 9.25977C39.1602 8.91211 39.2793 8.60938 39.4355 8.35156C39.5957 8.09375 39.791 7.89453 40.0215 7.75391C40.252 7.61328 40.5156 7.54297 40.8125 7.54297C40.9062 7.54297 41.002 7.55078 41.0996 7.56641C41.1973 7.57812 41.2773 7.5957 41.3398 7.61914ZM45.3594 12.5703V9.74609C45.3594 9.54297 45.3262 9.36914 45.2598 9.22461C45.1934 9.07617 45.0898 8.96094 44.9492 8.87891C44.8125 8.79688 44.6348 8.75586 44.416 8.75586C44.2285 8.75586 44.0664 8.78906 43.9297 8.85547C43.793 8.91797 43.6875 9.00977 43.6133 9.13086C43.5391 9.24805 43.502 9.38672 43.502 9.54688H41.8145C41.8145 9.27734 41.877 9.02148 42.002 8.7793C42.127 8.53711 42.3086 8.32422 42.5469 8.14062C42.7852 7.95312 43.0684 7.80664 43.3965 7.70117C43.7285 7.5957 44.0996 7.54297 44.5098 7.54297C45.002 7.54297 45.4395 7.625 45.8223 7.78906C46.2051 7.95312 46.5059 8.19922 46.7246 8.52734C46.9473 8.85547 47.0586 9.26562 47.0586 9.75781V12.4707C47.0586 12.8184 47.0801 13.1035 47.123 13.3262C47.166 13.5449 47.2285 13.7363 47.3105 13.9004V14H45.6055C45.5234 13.8281 45.4609 13.6133 45.418 13.3555C45.3789 13.0938 45.3594 12.832 45.3594 12.5703ZM45.582 10.1387L45.5938 11.0938H44.6504C44.4277 11.0938 44.2344 11.1191 44.0703 11.1699C43.9062 11.2207 43.7715 11.293 43.666 11.3867C43.5605 11.4766 43.4824 11.582 43.4316 11.7031C43.3848 11.8242 43.3613 11.957 43.3613 12.1016C43.3613 12.2461 43.3945 12.377 43.4609 12.4941C43.5273 12.6074 43.623 12.6973 43.748 12.7637C43.873 12.8262 44.0195 12.8574 44.1875 12.8574C44.4414 12.8574 44.6621 12.8066 44.8496 12.7051C45.0371 12.6035 45.1816 12.4785 45.2832 12.3301C45.3887 12.1816 45.4434 12.041 45.4473 11.9082L45.8926 12.623C45.8301 12.7832 45.7441 12.9492 45.6348 13.1211C45.5293 13.293 45.3945 13.4551 45.2305 13.6074C45.0664 13.7559 44.8691 13.8789 44.6387 13.9766C44.4082 14.0703 44.1348 14.1172 43.8184 14.1172C43.416 14.1172 43.0508 14.0371 42.7227 13.877C42.3984 13.7129 42.1406 13.4883 41.9492 13.2031C41.7617 12.9141 41.668 12.5859 41.668 12.2188C41.668 11.8867 41.7305 11.5918 41.8555 11.334C41.9805 11.0762 42.1641 10.8594 42.4062 10.6836C42.6523 10.5039 42.959 10.3691 43.3262 10.2793C43.6934 10.1855 44.1191 10.1387 44.6035 10.1387H45.582ZM50.1406 5V14H48.4473V5H50.1406ZM53.3164 5V14H51.623V5H53.3164ZM57.6289 14.1172C57.1367 14.1172 56.6953 14.0391 56.3047 13.8828C55.9141 13.7227 55.582 13.502 55.3086 13.2207C55.0391 12.9395 54.832 12.6133 54.6875 12.2422C54.543 11.8672 54.4707 11.4688 54.4707 11.0469V10.8125C54.4707 10.332 54.5391 9.89258 54.6758 9.49414C54.8125 9.0957 55.0078 8.75 55.2617 8.45703C55.5195 8.16406 55.832 7.93945 56.1992 7.7832C56.5664 7.62305 56.9805 7.54297 57.4414 7.54297C57.8906 7.54297 58.2891 7.61719 58.6367 7.76562C58.9844 7.91406 59.2754 8.125 59.5098 8.39844C59.748 8.67188 59.9277 9 60.0488 9.38281C60.1699 9.76172 60.2305 10.1836 60.2305 10.6484V11.3516H55.1914V10.2266H58.5723V10.0977C58.5723 9.86328 58.5293 9.6543 58.4434 9.4707C58.3613 9.2832 58.2363 9.13477 58.0684 9.02539C57.9004 8.91602 57.6855 8.86133 57.4238 8.86133C57.2012 8.86133 57.0098 8.91016 56.8496 9.00781C56.6895 9.10547 56.5586 9.24219 56.457 9.41797C56.3594 9.59375 56.2852 9.80078 56.2344 10.0391C56.1875 10.2734 56.1641 10.5312 56.1641 10.8125V11.0469C56.1641 11.3008 56.1992 11.5352 56.2695 11.75C56.3438 11.9648 56.4473 12.1504 56.5801 12.3066C56.7168 12.4629 56.8809 12.584 57.0723 12.6699C57.2676 12.7559 57.4883 12.7988 57.7344 12.7988C58.0391 12.7988 58.3223 12.7402 58.584 12.623C58.8496 12.502 59.0781 12.3203 59.2695 12.0781L60.0898 12.9688C59.957 13.1602 59.7754 13.3438 59.5449 13.5195C59.3184 13.6953 59.0449 13.8398 58.7246 13.9531C58.4043 14.0625 58.0391 14.1172 57.6289 14.1172ZM62.9727 5V14H61.2793V5H62.9727Z" fill="white"/>
<rect x="0.5" y="0.5" width="68" height="19" rx="4.5" stroke="white" stroke-opacity="0.1"/>
<defs>
<clipPath id="clip0_17_69">
<rect width="18" height="18" fill="white" transform="translate(1 1)"/>
</clipPath>
</defs>
</svg>
