<svg width="59" height="20" viewBox="0 0 59 20" fill="none" xmlns="http://www.w3.org/2000/svg">
<rect width="59" height="20" rx="5" fill="#35132C"/>
<g clip-path="url(#clip0_17_227)">
<path fill-rule="evenodd" clip-rule="evenodd" d="M9.25 8.49998H4.75L4.76687 11.5H9.25V8.49998Z" fill="white"/>
<path fill-rule="evenodd" clip-rule="evenodd" d="M15.25 8.49998H11.5L11.5141 11.5H15.25V8.49998Z" fill="white"/>
</g>
<path d="M28.2031 11.7676C28.2031 11.6152 28.1797 11.4785 28.1328 11.3574C28.0898 11.2324 28.0078 11.1191 27.8867 11.0176C27.7656 10.9121 27.5957 10.8086 27.377 10.707C27.1582 10.6055 26.875 10.5 26.5273 10.3906C26.1406 10.2656 25.7734 10.125 25.4258 9.96875C25.082 9.8125 24.7773 9.63086 24.5117 9.42383C24.25 9.21289 24.043 8.96875 23.8906 8.69141C23.7422 8.41406 23.668 8.0918 23.668 7.72461C23.668 7.36914 23.7461 7.04688 23.9023 6.75781C24.0586 6.46484 24.2773 6.21484 24.5586 6.00781C24.8398 5.79688 25.1719 5.63477 25.5547 5.52148C25.9414 5.4082 26.3652 5.35156 26.8262 5.35156C27.4551 5.35156 28.0039 5.46484 28.4727 5.69141C28.9414 5.91797 29.3047 6.22852 29.5625 6.62305C29.8242 7.01758 29.9551 7.46875 29.9551 7.97656H28.209C28.209 7.72656 28.1562 7.50781 28.0508 7.32031C27.9492 7.12891 27.793 6.97852 27.582 6.86914C27.375 6.75977 27.1133 6.70508 26.7969 6.70508C26.4922 6.70508 26.2383 6.75195 26.0352 6.8457C25.832 6.93555 25.6797 7.05859 25.5781 7.21484C25.4766 7.36719 25.4258 7.53906 25.4258 7.73047C25.4258 7.875 25.4609 8.00586 25.5312 8.12305C25.6055 8.24023 25.7148 8.34961 25.8594 8.45117C26.0039 8.55273 26.1816 8.64844 26.3926 8.73828C26.6035 8.82812 26.8477 8.91602 27.125 9.00195C27.5898 9.14258 27.998 9.30078 28.3496 9.47656C28.7051 9.65234 29.002 9.84961 29.2402 10.0684C29.4785 10.2871 29.6582 10.5352 29.7793 10.8125C29.9004 11.0898 29.9609 11.4043 29.9609 11.7559C29.9609 12.127 29.8887 12.459 29.7441 12.752C29.5996 13.0449 29.3906 13.293 29.1172 13.4961C28.8438 13.6992 28.5176 13.8535 28.1387 13.959C27.7598 14.0645 27.3359 14.1172 26.8672 14.1172C26.4453 14.1172 26.0293 14.0625 25.6191 13.9531C25.209 13.8398 24.8359 13.6699 24.5 13.4434C24.168 13.2168 23.9023 12.9277 23.7031 12.5762C23.5039 12.2246 23.4043 11.8086 23.4043 11.3281H25.168C25.168 11.5938 25.209 11.8184 25.291 12.002C25.373 12.1855 25.4883 12.334 25.6367 12.4473C25.7891 12.5605 25.9688 12.6426 26.1758 12.6934C26.3867 12.7441 26.6172 12.7695 26.8672 12.7695C27.1719 12.7695 27.4219 12.7266 27.6172 12.6406C27.8164 12.5547 27.9629 12.4355 28.0566 12.2832C28.1543 12.1309 28.2031 11.959 28.2031 11.7676ZM34.4727 12.5703V9.74609C34.4727 9.54297 34.4395 9.36914 34.373 9.22461C34.3066 9.07617 34.2031 8.96094 34.0625 8.87891C33.9258 8.79688 33.748 8.75586 33.5293 8.75586C33.3418 8.75586 33.1797 8.78906 33.043 8.85547C32.9062 8.91797 32.8008 9.00977 32.7266 9.13086C32.6523 9.24805 32.6152 9.38672 32.6152 9.54688H30.9277C30.9277 9.27734 30.9902 9.02148 31.1152 8.7793C31.2402 8.53711 31.4219 8.32422 31.6602 8.14062C31.8984 7.95312 32.1816 7.80664 32.5098 7.70117C32.8418 7.5957 33.2129 7.54297 33.623 7.54297C34.1152 7.54297 34.5527 7.625 34.9355 7.78906C35.3184 7.95312 35.6191 8.19922 35.8379 8.52734C36.0605 8.85547 36.1719 9.26562 36.1719 9.75781V12.4707C36.1719 12.8184 36.1934 13.1035 36.2363 13.3262C36.2793 13.5449 36.3418 13.7363 36.4238 13.9004V14H34.7188C34.6367 13.8281 34.5742 13.6133 34.5312 13.3555C34.4922 13.0938 34.4727 12.832 34.4727 12.5703ZM34.6953 10.1387L34.707 11.0938H33.7637C33.541 11.0938 33.3477 11.1191 33.1836 11.1699C33.0195 11.2207 32.8848 11.293 32.7793 11.3867C32.6738 11.4766 32.5957 11.582 32.5449 11.7031C32.498 11.8242 32.4746 11.957 32.4746 12.1016C32.4746 12.2461 32.5078 12.377 32.5742 12.4941C32.6406 12.6074 32.7363 12.6973 32.8613 12.7637C32.9863 12.8262 33.1328 12.8574 33.3008 12.8574C33.5547 12.8574 33.7754 12.8066 33.9629 12.7051C34.1504 12.6035 34.2949 12.4785 34.3965 12.3301C34.502 12.1816 34.5566 12.041 34.5605 11.9082L35.0059 12.623C34.9434 12.7832 34.8574 12.9492 34.748 13.1211C34.6426 13.293 34.5078 13.4551 34.3438 13.6074C34.1797 13.7559 33.9824 13.8789 33.752 13.9766C33.5215 14.0703 33.248 14.1172 32.9316 14.1172C32.5293 14.1172 32.1641 14.0371 31.8359 13.877C31.5117 13.7129 31.2539 13.4883 31.0625 13.2031C30.875 12.9141 30.7812 12.5859 30.7812 12.2188C30.7812 11.8867 30.8438 11.5918 30.9688 11.334C31.0938 11.0762 31.2773 10.8594 31.5195 10.6836C31.7656 10.5039 32.0723 10.3691 32.4395 10.2793C32.8066 10.1855 33.2324 10.1387 33.7168 10.1387H34.6953ZM39.1602 8.97266V14H37.4668V7.66016H39.0547L39.1602 8.97266ZM38.9258 10.6074H38.457C38.457 10.166 38.5098 9.75977 38.6152 9.38867C38.7246 9.01367 38.8828 8.68945 39.0898 8.41602C39.3008 8.13867 39.5605 7.92383 39.8691 7.77148C40.1777 7.61914 40.5352 7.54297 40.9414 7.54297C41.2227 7.54297 41.4805 7.58594 41.7148 7.67188C41.9492 7.75391 42.1504 7.88477 42.3184 8.06445C42.4902 8.24023 42.623 8.4707 42.7168 8.75586C42.8105 9.03711 42.8574 9.375 42.8574 9.76953V14H41.1699V9.95703C41.1699 9.66797 41.1309 9.44531 41.0527 9.28906C40.9746 9.13281 40.8633 9.02344 40.7188 8.96094C40.5781 8.89844 40.4082 8.86719 40.209 8.86719C39.9902 8.86719 39.7988 8.91211 39.6348 9.00195C39.4746 9.0918 39.3418 9.2168 39.2363 9.37695C39.1309 9.5332 39.0527 9.7168 39.002 9.92773C38.9512 10.1387 38.9258 10.3652 38.9258 10.6074ZM42.6992 10.4141L42.0957 10.4902C42.0957 10.0762 42.1465 9.69141 42.248 9.33594C42.3535 8.98047 42.5078 8.66797 42.7109 8.39844C42.918 8.12891 43.1738 7.91992 43.4785 7.77148C43.7832 7.61914 44.1348 7.54297 44.5332 7.54297C44.8379 7.54297 45.1152 7.58789 45.3652 7.67773C45.6152 7.76367 45.8281 7.90234 46.0039 8.09375C46.1836 8.28125 46.3203 8.52734 46.4141 8.83203C46.5117 9.13672 46.5605 9.50977 46.5605 9.95117V14H44.8672V9.95117C44.8672 9.6582 44.8281 9.43555 44.75 9.2832C44.6758 9.12695 44.5664 9.01953 44.4219 8.96094C44.2812 8.89844 44.1133 8.86719 43.918 8.86719C43.7148 8.86719 43.5371 8.9082 43.3848 8.99023C43.2324 9.06836 43.1055 9.17773 43.0039 9.31836C42.9023 9.45898 42.8262 9.62305 42.7754 9.81055C42.7246 9.99414 42.6992 10.1953 42.6992 10.4141ZM50.7852 14.1172C50.293 14.1172 49.8516 14.0391 49.4609 13.8828C49.0703 13.7227 48.7383 13.502 48.4648 13.2207C48.1953 12.9395 47.9883 12.6133 47.8438 12.2422C47.6992 11.8672 47.627 11.4688 47.627 11.0469V10.8125C47.627 10.332 47.6953 9.89258 47.832 9.49414C47.9688 9.0957 48.1641 8.75 48.418 8.45703C48.6758 8.16406 48.9883 7.93945 49.3555 7.7832C49.7227 7.62305 50.1367 7.54297 50.5977 7.54297C51.0469 7.54297 51.4453 7.61719 51.793 7.76562C52.1406 7.91406 52.4316 8.125 52.666 8.39844C52.9043 8.67188 53.084 9 53.2051 9.38281C53.3262 9.76172 53.3867 10.1836 53.3867 10.6484V11.3516H48.3477V10.2266H51.7285V10.0977C51.7285 9.86328 51.6855 9.6543 51.5996 9.4707C51.5176 9.2832 51.3926 9.13477 51.2246 9.02539C51.0566 8.91602 50.8418 8.86133 50.5801 8.86133C50.3574 8.86133 50.166 8.91016 50.0059 9.00781C49.8457 9.10547 49.7148 9.24219 49.6133 9.41797C49.5156 9.59375 49.4414 9.80078 49.3906 10.0391C49.3438 10.2734 49.3203 10.5312 49.3203 10.8125V11.0469C49.3203 11.3008 49.3555 11.5352 49.4258 11.75C49.5 11.9648 49.6035 12.1504 49.7363 12.3066C49.873 12.4629 50.0371 12.584 50.2285 12.6699C50.4238 12.7559 50.6445 12.7988 50.8906 12.7988C51.1953 12.7988 51.4785 12.7402 51.7402 12.623C52.0059 12.502 52.2344 12.3203 52.4258 12.0781L53.2461 12.9688C53.1133 13.1602 52.9316 13.3438 52.7012 13.5195C52.4746 13.6953 52.2012 13.8398 51.8809 13.9531C51.5605 14.0625 51.1953 14.1172 50.7852 14.1172Z" fill="white"/>
<rect x="0.5" y="0.5" width="58" height="19" rx="4.5" stroke="white" stroke-opacity="0.1"/>
<defs>
<clipPath id="clip0_17_227">
<rect width="18" height="18" fill="white" transform="translate(1 1)"/>
</clipPath>
</defs>
</svg>
