<svg width="86" height="20" viewBox="0 0 86 20" fill="none" xmlns="http://www.w3.org/2000/svg">
<rect width="86" height="20" rx="5" fill="#193948"/>
<g clip-path="url(#clip0_17_84)">
<path fill-rule="evenodd" clip-rule="evenodd" d="M11.5 4.06V15.94L15.2125 10L11.5 4.06Z" fill="white"/>
<path fill-rule="evenodd" clip-rule="evenodd" d="M6.2125 11.2V16L9.9625 10L6.2125 4V8.788H4.75V11.2H6.2125Z" fill="white"/>
</g>
<path d="M28.2031 11.7676C28.2031 11.6152 28.1797 11.4785 28.1328 11.3574C28.0898 11.2324 28.0078 11.1191 27.8867 11.0176C27.7656 10.9121 27.5957 10.8086 27.377 10.707C27.1582 10.6055 26.875 10.5 26.5273 10.3906C26.1406 10.2656 25.7734 10.125 25.4258 9.96875C25.082 9.8125 24.7773 9.63086 24.5117 9.42383C24.25 9.21289 24.043 8.96875 23.8906 8.69141C23.7422 8.41406 23.668 8.0918 23.668 7.72461C23.668 7.36914 23.7461 7.04688 23.9023 6.75781C24.0586 6.46484 24.2773 6.21484 24.5586 6.00781C24.8398 5.79688 25.1719 5.63477 25.5547 5.52148C25.9414 5.4082 26.3652 5.35156 26.8262 5.35156C27.4551 5.35156 28.0039 5.46484 28.4727 5.69141C28.9414 5.91797 29.3047 6.22852 29.5625 6.62305C29.8242 7.01758 29.9551 7.46875 29.9551 7.97656H28.209C28.209 7.72656 28.1562 7.50781 28.0508 7.32031C27.9492 7.12891 27.793 6.97852 27.582 6.86914C27.375 6.75977 27.1133 6.70508 26.7969 6.70508C26.4922 6.70508 26.2383 6.75195 26.0352 6.8457C25.832 6.93555 25.6797 7.05859 25.5781 7.21484C25.4766 7.36719 25.4258 7.53906 25.4258 7.73047C25.4258 7.875 25.4609 8.00586 25.5312 8.12305C25.6055 8.24023 25.7148 8.34961 25.8594 8.45117C26.0039 8.55273 26.1816 8.64844 26.3926 8.73828C26.6035 8.82812 26.8477 8.91602 27.125 9.00195C27.5898 9.14258 27.998 9.30078 28.3496 9.47656C28.7051 9.65234 29.002 9.84961 29.2402 10.0684C29.4785 10.2871 29.6582 10.5352 29.7793 10.8125C29.9004 11.0898 29.9609 11.4043 29.9609 11.7559C29.9609 12.127 29.8887 12.459 29.7441 12.752C29.5996 13.0449 29.3906 13.293 29.1172 13.4961C28.8438 13.6992 28.5176 13.8535 28.1387 13.959C27.7598 14.0645 27.3359 14.1172 26.8672 14.1172C26.4453 14.1172 26.0293 14.0625 25.6191 13.9531C25.209 13.8398 24.8359 13.6699 24.5 13.4434C24.168 13.2168 23.9023 12.9277 23.7031 12.5762C23.5039 12.2246 23.4043 11.8086 23.4043 11.3281H25.168C25.168 11.5938 25.209 11.8184 25.291 12.002C25.373 12.1855 25.4883 12.334 25.6367 12.4473C25.7891 12.5605 25.9688 12.6426 26.1758 12.6934C26.3867 12.7441 26.6172 12.7695 26.8672 12.7695C27.1719 12.7695 27.4219 12.7266 27.6172 12.6406C27.8164 12.5547 27.9629 12.4355 28.0566 12.2832C28.1543 12.1309 28.2031 11.959 28.2031 11.7676ZM33.9688 14.1172C33.4766 14.1172 33.0352 14.0391 32.6445 13.8828C32.2539 13.7227 31.9219 13.502 31.6484 13.2207C31.3789 12.9395 31.1719 12.6133 31.0273 12.2422C30.8828 11.8672 30.8105 11.4688 30.8105 11.0469V10.8125C30.8105 10.332 30.8789 9.89258 31.0156 9.49414C31.1523 9.0957 31.3477 8.75 31.6016 8.45703C31.8594 8.16406 32.1719 7.93945 32.5391 7.7832C32.9062 7.62305 33.3203 7.54297 33.7812 7.54297C34.2305 7.54297 34.6289 7.61719 34.9766 7.76562C35.3242 7.91406 35.6152 8.125 35.8496 8.39844C36.0879 8.67188 36.2676 9 36.3887 9.38281C36.5098 9.76172 36.5703 10.1836 36.5703 10.6484V11.3516H31.5312V10.2266H34.9121V10.0977C34.9121 9.86328 34.8691 9.6543 34.7832 9.4707C34.7012 9.2832 34.5762 9.13477 34.4082 9.02539C34.2402 8.91602 34.0254 8.86133 33.7637 8.86133C33.541 8.86133 33.3496 8.91016 33.1895 9.00781C33.0293 9.10547 32.8984 9.24219 32.7969 9.41797C32.6992 9.59375 32.625 9.80078 32.5742 10.0391C32.5273 10.2734 32.5039 10.5312 32.5039 10.8125V11.0469C32.5039 11.3008 32.5391 11.5352 32.6094 11.75C32.6836 11.9648 32.7871 12.1504 32.9199 12.3066C33.0566 12.4629 33.2207 12.584 33.4121 12.6699C33.6074 12.7559 33.8281 12.7988 34.0742 12.7988C34.3789 12.7988 34.6621 12.7402 34.9238 12.623C35.1895 12.502 35.418 12.3203 35.6094 12.0781L36.4297 12.9688C36.2969 13.1602 36.1152 13.3438 35.8848 13.5195C35.6582 13.6953 35.3848 13.8398 35.0645 13.9531C34.7441 14.0625 34.3789 14.1172 33.9688 14.1172ZM41.2754 16.4375V8.95508L41.4922 7.66016H42.9746V16.4375H41.2754ZM37.2676 10.8945V10.7715C37.2676 10.2871 37.3203 9.84766 37.4258 9.45312C37.5352 9.05469 37.6953 8.71484 37.9062 8.43359C38.1172 8.14844 38.375 7.92969 38.6797 7.77734C38.9883 7.62109 39.3438 7.54297 39.7461 7.54297C40.1328 7.54297 40.4668 7.62109 40.748 7.77734C41.0293 7.93359 41.2656 8.1543 41.457 8.43945C41.6523 8.72461 41.8086 9.06055 41.9258 9.44727C42.043 9.83398 42.1328 10.2578 42.1953 10.7188V10.9883C42.1367 11.4297 42.0469 11.8398 41.9258 12.2188C41.8086 12.5977 41.6523 12.9297 41.457 13.2148C41.2656 13.5 41.0273 13.7227 40.7422 13.8828C40.4609 14.0391 40.125 14.1172 39.7344 14.1172C39.3398 14.1172 38.9883 14.0371 38.6797 13.877C38.375 13.7129 38.1172 13.4863 37.9062 13.1973C37.6953 12.9082 37.5352 12.5684 37.4258 12.1777C37.3203 11.7832 37.2676 11.3555 37.2676 10.8945ZM38.9551 10.7715V10.8945C38.9551 11.1562 38.9766 11.4023 39.0195 11.6328C39.0625 11.8594 39.1309 12.0605 39.2246 12.2363C39.3223 12.4121 39.4473 12.5508 39.5996 12.6523C39.752 12.75 39.9395 12.7988 40.1621 12.7988C40.4707 12.7988 40.7188 12.7324 40.9062 12.5996C41.0977 12.4629 41.2383 12.2773 41.3281 12.043C41.4219 11.8086 41.4766 11.541 41.4922 11.2402V10.4727C41.4805 10.2266 41.4473 10.0059 41.3926 9.81055C41.3418 9.61133 41.2637 9.44141 41.1582 9.30078C41.0566 9.16016 40.9238 9.05273 40.7598 8.97852C40.5996 8.90039 40.4043 8.86133 40.1738 8.86133C39.9551 8.86133 39.7676 8.91016 39.6113 9.00781C39.4551 9.10547 39.3281 9.24219 39.2305 9.41797C39.1367 9.58984 39.0664 9.79102 39.0195 10.0215C38.9766 10.252 38.9551 10.502 38.9551 10.7715ZM48.0547 12.4824V7.66016H49.7422V14H48.1543L48.0547 12.4824ZM48.2422 11.1816L48.7402 11.1699C48.7402 11.5918 48.6914 11.9844 48.5938 12.3477C48.4961 12.707 48.3496 13.0195 48.1543 13.2852C47.959 13.5469 47.7129 13.752 47.416 13.9004C47.1191 14.0449 46.7695 14.1172 46.3672 14.1172C46.0586 14.1172 45.7734 14.0742 45.5117 13.9883C45.2539 13.8984 45.0312 13.7598 44.8438 13.5723C44.6602 13.3809 44.5156 13.1367 44.4102 12.8398C44.3086 12.5391 44.2578 12.1777 44.2578 11.7559V7.66016H45.9453V11.7676C45.9453 11.9551 45.9668 12.1133 46.0098 12.2422C46.0566 12.3711 46.1211 12.4766 46.2031 12.5586C46.2852 12.6406 46.3809 12.6992 46.4902 12.7344C46.6035 12.7695 46.7285 12.7871 46.8652 12.7871C47.2129 12.7871 47.4863 12.7168 47.6855 12.5762C47.8887 12.4355 48.0312 12.2441 48.1133 12.002C48.1992 11.7559 48.2422 11.4824 48.2422 11.1816ZM53.9492 14.1172C53.457 14.1172 53.0156 14.0391 52.625 13.8828C52.2344 13.7227 51.9023 13.502 51.6289 13.2207C51.3594 12.9395 51.1523 12.6133 51.0078 12.2422C50.8633 11.8672 50.791 11.4688 50.791 11.0469V10.8125C50.791 10.332 50.8594 9.89258 50.9961 9.49414C51.1328 9.0957 51.3281 8.75 51.582 8.45703C51.8398 8.16406 52.1523 7.93945 52.5195 7.7832C52.8867 7.62305 53.3008 7.54297 53.7617 7.54297C54.2109 7.54297 54.6094 7.61719 54.957 7.76562C55.3047 7.91406 55.5957 8.125 55.8301 8.39844C56.0684 8.67188 56.248 9 56.3691 9.38281C56.4902 9.76172 56.5508 10.1836 56.5508 10.6484V11.3516H51.5117V10.2266H54.8926V10.0977C54.8926 9.86328 54.8496 9.6543 54.7637 9.4707C54.6816 9.2832 54.5566 9.13477 54.3887 9.02539C54.2207 8.91602 54.0059 8.86133 53.7441 8.86133C53.5215 8.86133 53.3301 8.91016 53.1699 9.00781C53.0098 9.10547 52.8789 9.24219 52.7773 9.41797C52.6797 9.59375 52.6055 9.80078 52.5547 10.0391C52.5078 10.2734 52.4844 10.5312 52.4844 10.8125V11.0469C52.4844 11.3008 52.5195 11.5352 52.5898 11.75C52.6641 11.9648 52.7676 12.1504 52.9004 12.3066C53.0371 12.4629 53.2012 12.584 53.3926 12.6699C53.5879 12.7559 53.8086 12.7988 54.0547 12.7988C54.3594 12.7988 54.6426 12.7402 54.9043 12.623C55.1699 12.502 55.3984 12.3203 55.5898 12.0781L56.4102 12.9688C56.2773 13.1602 56.0957 13.3438 55.8652 13.5195C55.6387 13.6953 55.3652 13.8398 55.0449 13.9531C54.7246 14.0625 54.3594 14.1172 53.9492 14.1172ZM59.1641 9.01367V14H57.4766V7.66016H59.0586L59.1641 9.01367ZM58.918 10.6074H58.4609C58.4609 10.1387 58.5215 9.7168 58.6426 9.3418C58.7637 8.96289 58.9336 8.64062 59.1523 8.375C59.3711 8.10547 59.6309 7.90039 59.9316 7.75977C60.2363 7.61523 60.5762 7.54297 60.9512 7.54297C61.248 7.54297 61.5195 7.58594 61.7656 7.67188C62.0117 7.75781 62.2227 7.89453 62.3984 8.08203C62.5781 8.26953 62.7148 8.51758 62.8086 8.82617C62.9062 9.13477 62.9551 9.51172 62.9551 9.95703V14H61.2559V9.95117C61.2559 9.66992 61.2168 9.45117 61.1387 9.29492C61.0605 9.13867 60.9453 9.0293 60.793 8.9668C60.6445 8.90039 60.4609 8.86719 60.2422 8.86719C60.0156 8.86719 59.8184 8.91211 59.6504 9.00195C59.4863 9.0918 59.3496 9.2168 59.2402 9.37695C59.1348 9.5332 59.0547 9.7168 59 9.92773C58.9453 10.1387 58.918 10.3652 58.918 10.6074ZM67.3438 7.66016V8.85547H63.6523V7.66016H67.3438ZM64.5664 6.0957H66.2539V12.0898C66.2539 12.2734 66.2773 12.4141 66.3242 12.5117C66.375 12.6094 66.4492 12.6777 66.5469 12.7168C66.6445 12.752 66.7676 12.7695 66.916 12.7695C67.0215 12.7695 67.1152 12.7656 67.1973 12.7578C67.2832 12.7461 67.3555 12.7344 67.4141 12.7227L67.4199 13.9648C67.2754 14.0117 67.1191 14.0488 66.9512 14.0762C66.7832 14.1035 66.5977 14.1172 66.3945 14.1172C66.0234 14.1172 65.6992 14.0566 65.4219 13.9355C65.1484 13.8105 64.9375 13.6113 64.7891 13.3379C64.6406 13.0645 64.5664 12.7051 64.5664 12.2598V6.0957ZM70.0859 7.66016V14H68.3926V7.66016H70.0859ZM68.2871 6.00781C68.2871 5.76172 68.373 5.55859 68.5449 5.39844C68.7168 5.23828 68.9473 5.1582 69.2363 5.1582C69.5215 5.1582 69.75 5.23828 69.9219 5.39844C70.0977 5.55859 70.1855 5.76172 70.1855 6.00781C70.1855 6.25391 70.0977 6.45703 69.9219 6.61719C69.75 6.77734 69.5215 6.85742 69.2363 6.85742C68.9473 6.85742 68.7168 6.77734 68.5449 6.61719C68.373 6.45703 68.2871 6.25391 68.2871 6.00781ZM74.9023 12.5703V9.74609C74.9023 9.54297 74.8691 9.36914 74.8027 9.22461C74.7363 9.07617 74.6328 8.96094 74.4922 8.87891C74.3555 8.79688 74.1777 8.75586 73.959 8.75586C73.7715 8.75586 73.6094 8.78906 73.4727 8.85547C73.3359 8.91797 73.2305 9.00977 73.1562 9.13086C73.082 9.24805 73.0449 9.38672 73.0449 9.54688H71.3574C71.3574 9.27734 71.4199 9.02148 71.5449 8.7793C71.6699 8.53711 71.8516 8.32422 72.0898 8.14062C72.3281 7.95312 72.6113 7.80664 72.9395 7.70117C73.2715 7.5957 73.6426 7.54297 74.0527 7.54297C74.5449 7.54297 74.9824 7.625 75.3652 7.78906C75.748 7.95312 76.0488 8.19922 76.2676 8.52734C76.4902 8.85547 76.6016 9.26562 76.6016 9.75781V12.4707C76.6016 12.8184 76.623 13.1035 76.666 13.3262C76.709 13.5449 76.7715 13.7363 76.8535 13.9004V14H75.1484C75.0664 13.8281 75.0039 13.6133 74.9609 13.3555C74.9219 13.0938 74.9023 12.832 74.9023 12.5703ZM75.125 10.1387L75.1367 11.0938H74.1934C73.9707 11.0938 73.7773 11.1191 73.6133 11.1699C73.4492 11.2207 73.3145 11.293 73.209 11.3867C73.1035 11.4766 73.0254 11.582 72.9746 11.7031C72.9277 11.8242 72.9043 11.957 72.9043 12.1016C72.9043 12.2461 72.9375 12.377 73.0039 12.4941C73.0703 12.6074 73.166 12.6973 73.291 12.7637C73.416 12.8262 73.5625 12.8574 73.7305 12.8574C73.9844 12.8574 74.2051 12.8066 74.3926 12.7051C74.5801 12.6035 74.7246 12.4785 74.8262 12.3301C74.9316 12.1816 74.9863 12.041 74.9902 11.9082L75.4355 12.623C75.373 12.7832 75.2871 12.9492 75.1777 13.1211C75.0723 13.293 74.9375 13.4551 74.7734 13.6074C74.6094 13.7559 74.4121 13.8789 74.1816 13.9766C73.9512 14.0703 73.6777 14.1172 73.3613 14.1172C72.959 14.1172 72.5938 14.0371 72.2656 13.877C71.9414 13.7129 71.6836 13.4883 71.4922 13.2031C71.3047 12.9141 71.2109 12.5859 71.2109 12.2188C71.2109 11.8867 71.2734 11.5918 71.3984 11.334C71.5234 11.0762 71.707 10.8594 71.9492 10.6836C72.1953 10.5039 72.502 10.3691 72.8691 10.2793C73.2363 10.1855 73.6621 10.1387 74.1465 10.1387H75.125ZM79.6836 5V14H77.9902V5H79.6836Z" fill="white"/>
<rect x="0.5" y="0.5" width="85" height="19" rx="4.5" stroke="white" stroke-opacity="0.1"/>
<defs>
<clipPath id="clip0_17_84">
<rect width="18" height="18" fill="white" transform="translate(1 1)"/>
</clipPath>
</defs>
</svg>
