<svg width="62" height="20" viewBox="0 0 62 20" fill="none" xmlns="http://www.w3.org/2000/svg">
<rect width="62" height="20" rx="5" fill="#2B1948"/>
<g clip-path="url(#clip0_17_165)">
<path fill-rule="evenodd" clip-rule="evenodd" d="M15.25 8.49998H4.75L4.78937 11.5H15.25V8.49998Z" fill="white"/>
</g>
<path d="M28.2031 11.7676C28.2031 11.6152 28.1797 11.4785 28.1328 11.3574C28.0898 11.2324 28.0078 11.1191 27.8867 11.0176C27.7656 10.9121 27.5957 10.8086 27.377 10.707C27.1582 10.6055 26.875 10.5 26.5273 10.3906C26.1406 10.2656 25.7734 10.125 25.4258 9.96875C25.082 9.8125 24.7773 9.63086 24.5117 9.42383C24.25 9.21289 24.043 8.96875 23.8906 8.69141C23.7422 8.41406 23.668 8.0918 23.668 7.72461C23.668 7.36914 23.7461 7.04688 23.9023 6.75781C24.0586 6.46484 24.2773 6.21484 24.5586 6.00781C24.8398 5.79688 25.1719 5.63477 25.5547 5.52148C25.9414 5.4082 26.3652 5.35156 26.8262 5.35156C27.4551 5.35156 28.0039 5.46484 28.4727 5.69141C28.9414 5.91797 29.3047 6.22852 29.5625 6.62305C29.8242 7.01758 29.9551 7.46875 29.9551 7.97656H28.209C28.209 7.72656 28.1562 7.50781 28.0508 7.32031C27.9492 7.12891 27.793 6.97852 27.582 6.86914C27.375 6.75977 27.1133 6.70508 26.7969 6.70508C26.4922 6.70508 26.2383 6.75195 26.0352 6.8457C25.832 6.93555 25.6797 7.05859 25.5781 7.21484C25.4766 7.36719 25.4258 7.53906 25.4258 7.73047C25.4258 7.875 25.4609 8.00586 25.5312 8.12305C25.6055 8.24023 25.7148 8.34961 25.8594 8.45117C26.0039 8.55273 26.1816 8.64844 26.3926 8.73828C26.6035 8.82812 26.8477 8.91602 27.125 9.00195C27.5898 9.14258 27.998 9.30078 28.3496 9.47656C28.7051 9.65234 29.002 9.84961 29.2402 10.0684C29.4785 10.2871 29.6582 10.5352 29.7793 10.8125C29.9004 11.0898 29.9609 11.4043 29.9609 11.7559C29.9609 12.127 29.8887 12.459 29.7441 12.752C29.5996 13.0449 29.3906 13.293 29.1172 13.4961C28.8438 13.6992 28.5176 13.8535 28.1387 13.959C27.7598 14.0645 27.3359 14.1172 26.8672 14.1172C26.4453 14.1172 26.0293 14.0625 25.6191 13.9531C25.209 13.8398 24.8359 13.6699 24.5 13.4434C24.168 13.2168 23.9023 12.9277 23.7031 12.5762C23.5039 12.2246 23.4043 11.8086 23.4043 11.3281H25.168C25.168 11.5938 25.209 11.8184 25.291 12.002C25.373 12.1855 25.4883 12.334 25.6367 12.4473C25.7891 12.5605 25.9688 12.6426 26.1758 12.6934C26.3867 12.7441 26.6172 12.7695 26.8672 12.7695C27.1719 12.7695 27.4219 12.7266 27.6172 12.6406C27.8164 12.5547 27.9629 12.4355 28.0566 12.2832C28.1543 12.1309 28.2031 11.959 28.2031 11.7676ZM32.832 7.66016V14H31.1387V7.66016H32.832ZM31.0332 6.00781C31.0332 5.76172 31.1191 5.55859 31.291 5.39844C31.4629 5.23828 31.6934 5.1582 31.9824 5.1582C32.2676 5.1582 32.4961 5.23828 32.668 5.39844C32.8438 5.55859 32.9316 5.76172 32.9316 6.00781C32.9316 6.25391 32.8438 6.45703 32.668 6.61719C32.4961 6.77734 32.2676 6.85742 31.9824 6.85742C31.6934 6.85742 31.4629 6.77734 31.291 6.61719C31.1191 6.45703 31.0332 6.25391 31.0332 6.00781ZM35.8789 9.01367V14H34.1914V7.66016H35.7734L35.8789 9.01367ZM35.6328 10.6074H35.1758C35.1758 10.1387 35.2363 9.7168 35.3574 9.3418C35.4785 8.96289 35.6484 8.64062 35.8672 8.375C36.0859 8.10547 36.3457 7.90039 36.6465 7.75977C36.9512 7.61523 37.291 7.54297 37.666 7.54297C37.9629 7.54297 38.2344 7.58594 38.4805 7.67188C38.7266 7.75781 38.9375 7.89453 39.1133 8.08203C39.293 8.26953 39.4297 8.51758 39.5234 8.82617C39.6211 9.13477 39.6699 9.51172 39.6699 9.95703V14H37.9707V9.95117C37.9707 9.66992 37.9316 9.45117 37.8535 9.29492C37.7754 9.13867 37.6602 9.0293 37.5078 8.9668C37.3594 8.90039 37.1758 8.86719 36.957 8.86719C36.7305 8.86719 36.5332 8.91211 36.3652 9.00195C36.2012 9.0918 36.0645 9.2168 35.9551 9.37695C35.8496 9.5332 35.7695 9.7168 35.7148 9.92773C35.6602 10.1387 35.6328 10.3652 35.6328 10.6074ZM44.9668 7.66016H46.4961V13.7891C46.4961 14.3672 46.3672 14.8574 46.1094 15.2598C45.8555 15.666 45.5 15.9727 45.043 16.1797C44.5859 16.3906 44.0547 16.4961 43.4492 16.4961C43.1836 16.4961 42.9023 16.4609 42.6055 16.3906C42.3125 16.3203 42.0312 16.2109 41.7617 16.0625C41.4961 15.9141 41.2734 15.7266 41.0938 15.5L41.8379 14.5039C42.0332 14.7305 42.2598 14.9062 42.5176 15.0312C42.7754 15.1602 43.0605 15.2246 43.373 15.2246C43.6777 15.2246 43.9355 15.168 44.1465 15.0547C44.3574 14.9453 44.5195 14.7832 44.6328 14.5684C44.7461 14.3574 44.8027 14.1016 44.8027 13.8008V9.125L44.9668 7.66016ZM40.7012 10.9062V10.7832C40.7012 10.2988 40.7598 9.85938 40.877 9.46484C40.998 9.06641 41.168 8.72461 41.3867 8.43945C41.6094 8.1543 41.8789 7.93359 42.1953 7.77734C42.5117 7.62109 42.8691 7.54297 43.2676 7.54297C43.6895 7.54297 44.043 7.62109 44.3281 7.77734C44.6133 7.93359 44.8477 8.15625 45.0312 8.44531C45.2148 8.73047 45.3574 9.06836 45.459 9.45898C45.5645 9.8457 45.6465 10.2695 45.7051 10.7305V11C45.6465 11.4414 45.5586 11.8516 45.4414 12.2305C45.3242 12.6094 45.1699 12.9414 44.9785 13.2266C44.7871 13.5078 44.5488 13.7266 44.2637 13.8828C43.9824 14.0391 43.6465 14.1172 43.2559 14.1172C42.8652 14.1172 42.5117 14.0371 42.1953 13.877C41.8828 13.7168 41.6152 13.4922 41.3926 13.2031C41.1699 12.9141 40.998 12.5742 40.877 12.1836C40.7598 11.793 40.7012 11.3672 40.7012 10.9062ZM42.3887 10.7832V10.9062C42.3887 11.168 42.4141 11.4121 42.4648 11.6387C42.5156 11.8652 42.5938 12.0664 42.6992 12.2422C42.8086 12.4141 42.9434 12.5488 43.1035 12.6465C43.2676 12.7402 43.4609 12.7871 43.6836 12.7871C43.9922 12.7871 44.2441 12.7227 44.4395 12.5938C44.6348 12.4609 44.7812 12.2793 44.8789 12.0488C44.9766 11.8184 45.0332 11.5527 45.0488 11.252V10.4844C45.041 10.2383 45.0078 10.0176 44.9492 9.82227C44.8906 9.62305 44.8086 9.45312 44.7031 9.3125C44.5977 9.17188 44.4609 9.0625 44.293 8.98438C44.125 8.90625 43.9258 8.86719 43.6953 8.86719C43.4727 8.86719 43.2793 8.91797 43.1152 9.01953C42.9551 9.11719 42.8203 9.25195 42.7109 9.42383C42.6055 9.5957 42.5254 9.79883 42.4707 10.0332C42.416 10.2637 42.3887 10.5137 42.3887 10.7832ZM49.5898 5V14H47.8965V5H49.5898ZM53.9023 14.1172C53.4102 14.1172 52.9688 14.0391 52.5781 13.8828C52.1875 13.7227 51.8555 13.502 51.582 13.2207C51.3125 12.9395 51.1055 12.6133 50.9609 12.2422C50.8164 11.8672 50.7441 11.4688 50.7441 11.0469V10.8125C50.7441 10.332 50.8125 9.89258 50.9492 9.49414C51.0859 9.0957 51.2812 8.75 51.5352 8.45703C51.793 8.16406 52.1055 7.93945 52.4727 7.7832C52.8398 7.62305 53.2539 7.54297 53.7148 7.54297C54.1641 7.54297 54.5625 7.61719 54.9102 7.76562C55.2578 7.91406 55.5488 8.125 55.7832 8.39844C56.0215 8.67188 56.2012 9 56.3223 9.38281C56.4434 9.76172 56.5039 10.1836 56.5039 10.6484V11.3516H51.4648V10.2266H54.8457V10.0977C54.8457 9.86328 54.8027 9.6543 54.7168 9.4707C54.6348 9.2832 54.5098 9.13477 54.3418 9.02539C54.1738 8.91602 53.959 8.86133 53.6973 8.86133C53.4746 8.86133 53.2832 8.91016 53.123 9.00781C52.9629 9.10547 52.832 9.24219 52.7305 9.41797C52.6328 9.59375 52.5586 9.80078 52.5078 10.0391C52.4609 10.2734 52.4375 10.5312 52.4375 10.8125V11.0469C52.4375 11.3008 52.4727 11.5352 52.543 11.75C52.6172 11.9648 52.7207 12.1504 52.8535 12.3066C52.9902 12.4629 53.1543 12.584 53.3457 12.6699C53.541 12.7559 53.7617 12.7988 54.0078 12.7988C54.3125 12.7988 54.5957 12.7402 54.8574 12.623C55.123 12.502 55.3516 12.3203 55.543 12.0781L56.3633 12.9688C56.2305 13.1602 56.0488 13.3438 55.8184 13.5195C55.5918 13.6953 55.3184 13.8398 54.998 13.9531C54.6777 14.0625 54.3125 14.1172 53.9023 14.1172Z" fill="white"/>
<rect x="0.5" y="0.5" width="61" height="19" rx="4.5" stroke="white" stroke-opacity="0.1"/>
<defs>
<clipPath id="clip0_17_165">
<rect width="18" height="18" fill="white" transform="translate(1 1)"/>
</clipPath>
</defs>
</svg>
