<svg width="53" height="20" viewBox="0 0 53 20" fill="none" xmlns="http://www.w3.org/2000/svg">
<rect width="53" height="20" rx="5" fill="#35132C"/>
<g clip-path="url(#clip0_17_276)">
<path fill-rule="evenodd" clip-rule="evenodd" d="M9.25 10.75H4.75L4.76687 13.75H9.25V10.75Z" fill="white"/>
<path fill-rule="evenodd" clip-rule="evenodd" d="M9.25 6.24998H4.75L4.76687 9.24999H9.25V6.24998Z" fill="white"/>
<path fill-rule="evenodd" clip-rule="evenodd" d="M15.25 6.25H11.5L11.5141 13.75H15.25V6.25Z" fill="white"/>
</g>
<path d="M28.2031 11.7676C28.2031 11.6152 28.1797 11.4785 28.1328 11.3574C28.0898 11.2324 28.0078 11.1191 27.8867 11.0176C27.7656 10.9121 27.5957 10.8086 27.377 10.707C27.1582 10.6055 26.875 10.5 26.5273 10.3906C26.1406 10.2656 25.7734 10.125 25.4258 9.96875C25.082 9.8125 24.7773 9.63086 24.5117 9.42383C24.25 9.21289 24.043 8.96875 23.8906 8.69141C23.7422 8.41406 23.668 8.0918 23.668 7.72461C23.668 7.36914 23.7461 7.04688 23.9023 6.75781C24.0586 6.46484 24.2773 6.21484 24.5586 6.00781C24.8398 5.79688 25.1719 5.63477 25.5547 5.52148C25.9414 5.4082 26.3652 5.35156 26.8262 5.35156C27.4551 5.35156 28.0039 5.46484 28.4727 5.69141C28.9414 5.91797 29.3047 6.22852 29.5625 6.62305C29.8242 7.01758 29.9551 7.46875 29.9551 7.97656H28.209C28.209 7.72656 28.1562 7.50781 28.0508 7.32031C27.9492 7.12891 27.793 6.97852 27.582 6.86914C27.375 6.75977 27.1133 6.70508 26.7969 6.70508C26.4922 6.70508 26.2383 6.75195 26.0352 6.8457C25.832 6.93555 25.6797 7.05859 25.5781 7.21484C25.4766 7.36719 25.4258 7.53906 25.4258 7.73047C25.4258 7.875 25.4609 8.00586 25.5312 8.12305C25.6055 8.24023 25.7148 8.34961 25.8594 8.45117C26.0039 8.55273 26.1816 8.64844 26.3926 8.73828C26.6035 8.82812 26.8477 8.91602 27.125 9.00195C27.5898 9.14258 27.998 9.30078 28.3496 9.47656C28.7051 9.65234 29.002 9.84961 29.2402 10.0684C29.4785 10.2871 29.6582 10.5352 29.7793 10.8125C29.9004 11.0898 29.9609 11.4043 29.9609 11.7559C29.9609 12.127 29.8887 12.459 29.7441 12.752C29.5996 13.0449 29.3906 13.293 29.1172 13.4961C28.8438 13.6992 28.5176 13.8535 28.1387 13.959C27.7598 14.0645 27.3359 14.1172 26.8672 14.1172C26.4453 14.1172 26.0293 14.0625 25.6191 13.9531C25.209 13.8398 24.8359 13.6699 24.5 13.4434C24.168 13.2168 23.9023 12.9277 23.7031 12.5762C23.5039 12.2246 23.4043 11.8086 23.4043 11.3281H25.168C25.168 11.5938 25.209 11.8184 25.291 12.002C25.373 12.1855 25.4883 12.334 25.6367 12.4473C25.7891 12.5605 25.9688 12.6426 26.1758 12.6934C26.3867 12.7441 26.6172 12.7695 26.8672 12.7695C27.1719 12.7695 27.4219 12.7266 27.6172 12.6406C27.8164 12.5547 27.9629 12.4355 28.0566 12.2832C28.1543 12.1309 28.2031 11.959 28.2031 11.7676ZM34.8008 12.4824V7.66016H36.4883V14H34.9004L34.8008 12.4824ZM34.9883 11.1816L35.4863 11.1699C35.4863 11.5918 35.4375 11.9844 35.3398 12.3477C35.2422 12.707 35.0957 13.0195 34.9004 13.2852C34.7051 13.5469 34.459 13.752 34.1621 13.9004C33.8652 14.0449 33.5156 14.1172 33.1133 14.1172C32.8047 14.1172 32.5195 14.0742 32.2578 13.9883C32 13.8984 31.7773 13.7598 31.5898 13.5723C31.4062 13.3809 31.2617 13.1367 31.1562 12.8398C31.0547 12.5391 31.0039 12.1777 31.0039 11.7559V7.66016H32.6914V11.7676C32.6914 11.9551 32.7129 12.1133 32.7559 12.2422C32.8027 12.3711 32.8672 12.4766 32.9492 12.5586C33.0312 12.6406 33.127 12.6992 33.2363 12.7344C33.3496 12.7695 33.4746 12.7871 33.6113 12.7871C33.959 12.7871 34.2324 12.7168 34.4316 12.5762C34.6348 12.4355 34.7773 12.2441 34.8594 12.002C34.9453 11.7559 34.9883 11.4824 34.9883 11.1816ZM39.4648 8.97266V14H37.7715V7.66016H39.3594L39.4648 8.97266ZM39.2305 10.6074H38.7617C38.7617 10.166 38.8145 9.75977 38.9199 9.38867C39.0293 9.01367 39.1875 8.68945 39.3945 8.41602C39.6055 8.13867 39.8652 7.92383 40.1738 7.77148C40.4824 7.61914 40.8398 7.54297 41.2461 7.54297C41.5273 7.54297 41.7852 7.58594 42.0195 7.67188C42.2539 7.75391 42.4551 7.88477 42.623 8.06445C42.7949 8.24023 42.9277 8.4707 43.0215 8.75586C43.1152 9.03711 43.1621 9.375 43.1621 9.76953V14H41.4746V9.95703C41.4746 9.66797 41.4355 9.44531 41.3574 9.28906C41.2793 9.13281 41.168 9.02344 41.0234 8.96094C40.8828 8.89844 40.7129 8.86719 40.5137 8.86719C40.2949 8.86719 40.1035 8.91211 39.9395 9.00195C39.7793 9.0918 39.6465 9.2168 39.541 9.37695C39.4355 9.5332 39.3574 9.7168 39.3066 9.92773C39.2559 10.1387 39.2305 10.3652 39.2305 10.6074ZM43.0039 10.4141L42.4004 10.4902C42.4004 10.0762 42.4512 9.69141 42.5527 9.33594C42.6582 8.98047 42.8125 8.66797 43.0156 8.39844C43.2227 8.12891 43.4785 7.91992 43.7832 7.77148C44.0879 7.61914 44.4395 7.54297 44.8379 7.54297C45.1426 7.54297 45.4199 7.58789 45.6699 7.67773C45.9199 7.76367 46.1328 7.90234 46.3086 8.09375C46.4883 8.28125 46.625 8.52734 46.7188 8.83203C46.8164 9.13672 46.8652 9.50977 46.8652 9.95117V14H45.1719V9.95117C45.1719 9.6582 45.1328 9.43555 45.0547 9.2832C44.9805 9.12695 44.8711 9.01953 44.7266 8.96094C44.5859 8.89844 44.418 8.86719 44.2227 8.86719C44.0195 8.86719 43.8418 8.9082 43.6895 8.99023C43.5371 9.06836 43.4102 9.17773 43.3086 9.31836C43.207 9.45898 43.1309 9.62305 43.0801 9.81055C43.0293 9.99414 43.0039 10.1953 43.0039 10.4141Z" fill="white"/>
<rect x="0.5" y="0.5" width="52" height="19" rx="4.5" stroke="white" stroke-opacity="0.1"/>
<defs>
<clipPath id="clip0_17_276">
<rect width="18" height="18" fill="white" transform="translate(1 1)"/>
</clipPath>
</defs>
</svg>
