<svg width="55" height="20" viewBox="0 0 55 20" fill="none" xmlns="http://www.w3.org/2000/svg">
<rect width="55" height="20" rx="5" fill="#193948"/>
<g clip-path="url(#clip0_17_77)">
<path fill-rule="evenodd" clip-rule="evenodd" d="M7.7125 10L9.9625 12.25L6.2125 16V13H5V11.4925H6.2125V8.5H5V6.9925H6.2125V4L9.9625 7.75L7.7125 10Z" fill="white"/>
<path fill-rule="evenodd" clip-rule="evenodd" d="M11.5 4.06V15.94L15.2125 10L11.5 4.06Z" fill="white"/>
</g>
<path d="M28.2031 11.7676C28.2031 11.6152 28.1797 11.4785 28.1328 11.3574C28.0898 11.2324 28.0078 11.1191 27.8867 11.0176C27.7656 10.9121 27.5957 10.8086 27.377 10.707C27.1582 10.6055 26.875 10.5 26.5273 10.3906C26.1406 10.2656 25.7734 10.125 25.4258 9.96875C25.082 9.8125 24.7773 9.63086 24.5117 9.42383C24.25 9.21289 24.043 8.96875 23.8906 8.69141C23.7422 8.41406 23.668 8.0918 23.668 7.72461C23.668 7.36914 23.7461 7.04688 23.9023 6.75781C24.0586 6.46484 24.2773 6.21484 24.5586 6.00781C24.8398 5.79688 25.1719 5.63477 25.5547 5.52148C25.9414 5.4082 26.3652 5.35156 26.8262 5.35156C27.4551 5.35156 28.0039 5.46484 28.4727 5.69141C28.9414 5.91797 29.3047 6.22852 29.5625 6.62305C29.8242 7.01758 29.9551 7.46875 29.9551 7.97656H28.209C28.209 7.72656 28.1562 7.50781 28.0508 7.32031C27.9492 7.12891 27.793 6.97852 27.582 6.86914C27.375 6.75977 27.1133 6.70508 26.7969 6.70508C26.4922 6.70508 26.2383 6.75195 26.0352 6.8457C25.832 6.93555 25.6797 7.05859 25.5781 7.21484C25.4766 7.36719 25.4258 7.53906 25.4258 7.73047C25.4258 7.875 25.4609 8.00586 25.5312 8.12305C25.6055 8.24023 25.7148 8.34961 25.8594 8.45117C26.0039 8.55273 26.1816 8.64844 26.3926 8.73828C26.6035 8.82812 26.8477 8.91602 27.125 9.00195C27.5898 9.14258 27.998 9.30078 28.3496 9.47656C28.7051 9.65234 29.002 9.84961 29.2402 10.0684C29.4785 10.2871 29.6582 10.5352 29.7793 10.8125C29.9004 11.0898 29.9609 11.4043 29.9609 11.7559C29.9609 12.127 29.8887 12.459 29.7441 12.752C29.5996 13.0449 29.3906 13.293 29.1172 13.4961C28.8438 13.6992 28.5176 13.8535 28.1387 13.959C27.7598 14.0645 27.3359 14.1172 26.8672 14.1172C26.4453 14.1172 26.0293 14.0625 25.6191 13.9531C25.209 13.8398 24.8359 13.6699 24.5 13.4434C24.168 13.2168 23.9023 12.9277 23.7031 12.5762C23.5039 12.2246 23.4043 11.8086 23.4043 11.3281H25.168C25.168 11.5938 25.209 11.8184 25.291 12.002C25.373 12.1855 25.4883 12.334 25.6367 12.4473C25.7891 12.5605 25.9688 12.6426 26.1758 12.6934C26.3867 12.7441 26.6172 12.7695 26.8672 12.7695C27.1719 12.7695 27.4219 12.7266 27.6172 12.6406C27.8164 12.5547 27.9629 12.4355 28.0566 12.2832C28.1543 12.1309 28.2031 11.959 28.2031 11.7676ZM32.9316 13.2852L34.6133 7.66016H36.4238L33.875 14.9551C33.8203 15.1152 33.7461 15.2871 33.6523 15.4707C33.5625 15.6543 33.4395 15.8281 33.2832 15.9922C33.1309 16.1602 32.9375 16.2969 32.7031 16.4023C32.4727 16.5078 32.1895 16.5605 31.8535 16.5605C31.6934 16.5605 31.5625 16.5508 31.4609 16.5312C31.3594 16.5117 31.2383 16.4844 31.0977 16.4492V15.2129C31.1406 15.2129 31.1855 15.2129 31.2324 15.2129C31.2793 15.2168 31.3242 15.2188 31.3672 15.2188C31.5898 15.2188 31.7715 15.1934 31.9121 15.1426C32.0527 15.0918 32.166 15.0137 32.252 14.9082C32.3379 14.8066 32.4062 14.6738 32.457 14.5098L32.9316 13.2852ZM32.2285 7.66016L33.6055 12.2539L33.8457 14.041L32.6973 14.1641L30.418 7.66016H32.2285ZM38.75 9.01367V14H37.0625V7.66016H38.6445L38.75 9.01367ZM38.5039 10.6074H38.0469C38.0469 10.1387 38.1074 9.7168 38.2285 9.3418C38.3496 8.96289 38.5195 8.64062 38.7383 8.375C38.957 8.10547 39.2168 7.90039 39.5176 7.75977C39.8223 7.61523 40.1621 7.54297 40.5371 7.54297C40.834 7.54297 41.1055 7.58594 41.3516 7.67188C41.5977 7.75781 41.8086 7.89453 41.9844 8.08203C42.1641 8.26953 42.3008 8.51758 42.3945 8.82617C42.4922 9.13477 42.541 9.51172 42.541 9.95703V14H40.8418V9.95117C40.8418 9.66992 40.8027 9.45117 40.7246 9.29492C40.6465 9.13867 40.5312 9.0293 40.3789 8.9668C40.2305 8.90039 40.0469 8.86719 39.8281 8.86719C39.6016 8.86719 39.4043 8.91211 39.2363 9.00195C39.0723 9.0918 38.9355 9.2168 38.8262 9.37695C38.7207 9.5332 38.6406 9.7168 38.5859 9.92773C38.5312 10.1387 38.5039 10.3652 38.5039 10.6074ZM46.4434 12.7988C46.6504 12.7988 46.834 12.7598 46.9941 12.6816C47.1543 12.5996 47.2793 12.4863 47.3691 12.3418C47.4629 12.1934 47.5117 12.0195 47.5156 11.8203H49.1035C49.0996 12.2656 48.9805 12.6621 48.7461 13.0098C48.5117 13.3535 48.1973 13.625 47.8027 13.8242C47.4082 14.0195 46.9668 14.1172 46.4785 14.1172C45.9863 14.1172 45.5566 14.0352 45.1895 13.8711C44.8262 13.707 44.5234 13.4805 44.2812 13.1914C44.0391 12.8984 43.8574 12.5586 43.7363 12.1719C43.6152 11.7812 43.5547 11.3633 43.5547 10.918V10.748C43.5547 10.2988 43.6152 9.88086 43.7363 9.49414C43.8574 9.10352 44.0391 8.76367 44.2812 8.47461C44.5234 8.18164 44.8262 7.95312 45.1895 7.78906C45.5527 7.625 45.9785 7.54297 46.4668 7.54297C46.9863 7.54297 47.4414 7.64258 47.832 7.8418C48.2266 8.04102 48.5352 8.32617 48.7578 8.69727C48.9844 9.06445 49.0996 9.5 49.1035 10.0039H47.5156C47.5117 9.79297 47.4668 9.60156 47.3809 9.42969C47.2988 9.25781 47.1777 9.12109 47.0176 9.01953C46.8613 8.91406 46.668 8.86133 46.4375 8.86133C46.1914 8.86133 45.9902 8.91406 45.834 9.01953C45.6777 9.12109 45.5566 9.26172 45.4707 9.44141C45.3848 9.61719 45.3242 9.81836 45.2891 10.0449C45.2578 10.2676 45.2422 10.502 45.2422 10.748V10.918C45.2422 11.1641 45.2578 11.4004 45.2891 11.627C45.3203 11.8535 45.3789 12.0547 45.4648 12.2305C45.5547 12.4062 45.6777 12.5449 45.834 12.6465C45.9902 12.748 46.1934 12.7988 46.4434 12.7988Z" fill="white"/>
<rect x="0.5" y="0.5" width="54" height="19" rx="4.5" stroke="white" stroke-opacity="0.1"/>
<defs>
<clipPath id="clip0_17_77">
<rect width="18" height="18" fill="white" transform="translate(1 1)"/>
</clipPath>
</defs>
</svg>
